<?xml version="1.0" standalone="no"?><!DOCTYPE svg PUBLIC "-//W3C//DTD SVG 1.1//EN" "http://www.w3.org/Graphics/SVG/1.1/DTD/svg11.dtd"><svg t="1707853911857" class="icon" viewBox="0 0 1024 1024" version="1.1" xmlns="http://www.w3.org/2000/svg" p-id="17764" xmlns:xlink="http://www.w3.org/1999/xlink" width="200" height="200"><path d="M953.03 425.66L547.41 115.43c-27.85-21.31-66.66-20.79-93.93 1.24L70.5 426.03c-16.68 13.47-7.16 40.42 14.28 40.42h76.52v390.26c0 37.27 30.22 67.49 67.49 67.49h569.25c37.27 0 67.49-30.22 67.49-67.49V466.45h73.69c21.74 0 31.08-27.58 13.81-40.79zM294.44 810.77c0 10.76-8.72 19.48-19.48 19.48h-36.05c-10.76 0-19.47-8.72-19.47-19.48V699.72c0-10.75 8.71-19.47 19.47-19.47h36.05c10.76 0 19.48 8.72 19.48 19.47v111.05z m0-187.5c0 10.76-8.72 19.48-19.48 19.48h-36.05c-10.76 0-19.47-8.72-19.47-19.48V512.22c0-10.75 8.71-19.47 19.47-19.47h36.05c10.76 0 19.48 8.72 19.48 19.47v111.05z m187.5 187.84c0 10.57-8.57 19.14-19.14 19.14h-74.23c-10.57 0-19.13-8.57-19.13-19.14V661.88c0-10.57 8.56-19.13 19.13-19.13h74.23c10.57 0 19.14 8.56 19.14 19.13v149.23z m150-6.25c0 14.02-11.37 25.39-25.39 25.39h-61.73c-14.02 0-25.38-11.37-25.38-25.39V593.13c0-14.02 11.36-25.38 25.38-25.38h61.73c14.02 0 25.39 11.36 25.39 25.38v211.73z m150 13.94c0 6.32-5.13 11.45-11.45 11.45h-89.61c-6.32 0-11.44-5.13-11.44-11.45v-89.6c0-6.33 5.12-11.45 11.44-11.45h89.61c6.32 0 11.45 5.12 11.45 11.45v89.6z" p-id="17765" fill="#4C87E6"></path></svg>