<?xml version="1.0" standalone="no"?><!DOCTYPE svg PUBLIC "-//W3C//DTD SVG 1.1//EN" "http://www.w3.org/Graphics/SVG/1.1/DTD/svg11.dtd"><svg t="1707854055417" class="icon" viewBox="0 0 1024 1024" version="1.1" xmlns="http://www.w3.org/2000/svg" p-id="21691" xmlns:xlink="http://www.w3.org/1999/xlink" width="200" height="200"><path d="M560 192V32l-512 150.112v691.776L560 1024v-160h384V192h-384z m0 480h96v64h-96v-64z m0-128h96v64h-96v-64z m0-128h96v64h-96v-64z m0-128h96v64h-96V288z m160 384h128v64h-128v-64z m0-128h128v64h-128v-64z m0-128h128v64l-127.488 0.992L720 416z m0-128h128v64h-128V288zM246.464 361.312l62.688 105.824 65.376-112.448 54.144-2.784-91.296 155.008 97.856 198.752-58.816-35.104-68.864-121.664-69.984 114.464-55.328-2.88 97.888-153.472-91.328-142.72 57.664-2.976z m0 0" fill="#4C87E6" p-id="21692"></path></svg>