<?xml version="1.0" standalone="no"?><!DOCTYPE svg PUBLIC "-//W3C//DTD SVG 1.1//EN" "http://www.w3.org/Graphics/SVG/1.1/DTD/svg11.dtd"><svg t="1707853370529" class="icon" viewBox="0 0 1270 1024" version="1.1" xmlns="http://www.w3.org/2000/svg" p-id="6283" xmlns:xlink="http://www.w3.org/1999/xlink" width="248.046875" height="200"><path d="M927.661907 275.289177l67.622003-101.433006a60.859803 60.859803 0 0 0 28.942218 4.868784c48.282111 0 91.763059-38.679786 91.763059-86.961896S1072.508239 0 1019.424966 0c-48.349733 0-91.763059 38.612164-91.763059 86.961897 0 19.272271 9.602325 38.612164 19.272271 53.083272L879.109308 251.148121c-77.089084-33.811002-159.182196-48.282111-246.144093-48.28211a633.009575 633.009575 0 0 0-251.148121 53.150895L304.322278 144.913954a72.423166 72.423166 0 0 0 19.339893-53.150895C323.865037 43.683814 285.590983 5.206894 232.913442 4.801162c-48.890709 0-91.763059 36.515882-92.574523 85.406591s38.071188 88.517203 91.763059 88.517202a60.859803 60.859803 0 0 0 28.942218-4.868784l72.490788 106.30179c-106.30179 67.622004-183.526118 173.856171-183.526118 333.241233v72.490788a339.124348 339.124348 0 0 0 338.110018 338.110018H777.676303a339.124348 339.124348 0 0 0 338.110018-338.110018V613.399194c0-159.385062-77.089084-270.488014-188.124414-338.110017z m-29.00984 507.165026H369.780377a122.260582 122.260582 0 0 1-123.139668-118.47375A119.555702 119.555702 0 0 1 367.345985 540.976029h528.87169a122.260582 122.260582 0 0 1 123.139669 118.47375 119.555702 119.555702 0 0 1-120.705277 123.004424z" p-id="6284" fill="#4C87E6"></path><path d="M777.676303 661.748927a72.490788 72.490788 0 0 0 144.913954 0 72.490788 72.490788 0 1 0-144.913954 0zM343.20493 661.748927a72.490788 72.490788 0 0 0 144.913954 0 72.490788 72.490788 0 1 0-144.913954 0zM1146.013356 754.593938V511.966189c64.849501-5.477382 123.477779 51.866077 124.153999 119.420458 0.540976 69.244932-57.005349 127.332233-124.153999 123.207291zM122.757198 755.67589A121.719606 121.719606 0 0 1 0.023262 635.984944C-1.261556 566.469524 50.807387 512.574787 122.757198 510.681371v244.994519z" p-id="6285" fill="#4C87E6"></path></svg>