<?xml version="1.0" standalone="no"?><!DOCTYPE svg PUBLIC "-//W3C//DTD SVG 1.1//EN" "http://www.w3.org/Graphics/SVG/1.1/DTD/svg11.dtd"><svg t="1707853859565" class="icon" viewBox="0 0 1024 1024" version="1.1" xmlns="http://www.w3.org/2000/svg" p-id="16618" xmlns:xlink="http://www.w3.org/1999/xlink" width="200" height="200"><path d="M223.48288 158.08512h579.56352v66.5088H223.48288zM223.48288 262.59968h579.56352v66.5088H223.48288z" p-id="16619" fill="#4C87E6"></path><path d="M940.81536 433.6128a33.2544 33.2544 0 0 0 33.2544-33.24928V86.83008a33.2544 33.2544 0 0 0-33.2544-33.2544H85.71904a33.2544 33.2544 0 0 0-33.2544 33.2544v313.53344a33.2544 33.2544 0 0 0 33.2544 33.24928h57.00608v299.28448H85.71904a33.24928 33.24928 0 0 0-33.2544 33.2544v171.01312a33.2544 33.2544 0 0 0 33.2544 33.2544h171.01824a33.2544 33.2544 0 0 0 33.2544-33.2544v-171.008a33.24928 33.24928 0 0 0-33.2544-33.2544h-47.50336V433.6128h270.78144v299.28448H427.75552a33.24928 33.24928 0 0 0-33.2544 33.2544v171.01312a33.2544 33.2544 0 0 0 33.2544 33.2544h171.02336a33.2544 33.2544 0 0 0 33.24928-33.2544v-47.50336h104.50944v47.50336a33.2544 33.2544 0 0 0 33.2544 33.2544h171.01824a33.2544 33.2544 0 0 0 33.2544-33.2544v-171.008a33.24928 33.24928 0 0 0-33.2544-33.2544H769.792a33.24928 33.24928 0 0 0-33.2544 33.2544v57.00608h-104.50944V766.1568a33.24928 33.24928 0 0 0-33.24928-33.2544h-52.25984v-109.26592h190.01856v47.50848a33.2544 33.2544 0 0 0 33.2544 33.24928h171.01824a33.2544 33.2544 0 0 0 33.2544-33.24928V500.12672a33.2544 33.2544 0 0 0-33.2544-33.2544H769.792a33.2544 33.2544 0 0 0-33.2544 33.2544v57.00608h-190.01856V433.6128h394.29632zM118.97344 367.10912V120.08448h788.58752v247.02976H118.97344z" p-id="16620" fill="#4C87E6"></path></svg>