<?xml version="1.0" standalone="no"?><!DOCTYPE svg PUBLIC "-//W3C//DTD SVG 1.1//EN" "http://www.w3.org/Graphics/SVG/1.1/DTD/svg11.dtd"><svg t="1707854785850" class="icon" viewBox="0 0 1024 1024" version="1.1" xmlns="http://www.w3.org/2000/svg" p-id="28419" xmlns:xlink="http://www.w3.org/1999/xlink" width="200" height="200"><path d="M276.8 116.675v52.675l0.13 5.267c2.786 56.066 48.703 100.083 104.403 100.083h261.334l5.226-0.132c55.631-2.807 99.307-49.083 99.307-105.218v-52.675h52.267c57.732 0 104.533 47.167 104.533 105.35V854.65C904 912.833 857.199 960 799.467 960H224.533C166.801 960 120 912.833 120 854.65V222.025c0-58.183 46.801-105.35 104.533-105.35H276.8z m483.467 447.737H263.733c-21.65 0-39.2 17.687-39.2 39.506 0 21.818 17.55 39.506 39.2 39.506h496.534c21.65 0 39.2-17.688 39.2-39.506 0-21.819-17.55-39.506-39.2-39.506zM498.933 406.387h-235.2c-21.647 0.004-39.193 17.69-39.193 39.506s17.546 39.502 39.193 39.506h235.2c21.647-0.004 39.194-17.69 39.194-39.506s-17.547-39.502-39.194-39.506z" fill="#06C1AE" p-id="28420" data-spm-anchor-id="a313x.search_index.0.i24.117c3a81lBVOBf" class=""></path><path d="M394.4 64c-34.423-0.005-62.945 26.907-65.203 61.524l-0.13 4.32v26.337c-0.006 34.692 26.699 63.436 61.047 65.712l4.286 0.132h235.2c34.423 0.005 62.945-26.908 65.203-61.525l0.13-4.319v-26.337c0.006-34.692-26.699-63.437-61.047-65.712L629.6 64H394.4z" fill="#4C87E6" p-id="28421" data-spm-anchor-id="a313x.search_index.0.i23.117c3a81lBVOBf" class=""></path></svg>