<?xml version="1.0" standalone="no"?><!DOCTYPE svg PUBLIC "-//W3C//DTD SVG 1.1//EN" "http://www.w3.org/Graphics/SVG/1.1/DTD/svg11.dtd"><svg t="1725378034103" class="icon" viewBox="0 0 1024 1024" version="1.1" xmlns="http://www.w3.org/2000/svg" p-id="5157" xmlns:xlink="http://www.w3.org/1999/xlink" width="200" height="200"><path d="M900.778667 183.381333a273.28 273.28 0 0 1-31.829334 352.213334l-94.976 95.274666L388.48 244.053333l99.626667-95.317333a280.917333 280.917333 0 0 1 197.205333-83.328 250.666667 250.666667 0 0 1 159.018667 53.76L960.853333 2.56l60.330667 60.373333-120.405333 120.405334z m-281.856 364.16h-0.981334l35.84 41.813334-89.301333 89.344 77.653333 77.354666-101.248 101.290667a279.893333 279.893333 0 0 1-196.266666 83.328 248.704 248.704 0 0 1-165.973334-59.733333L41.514667 1018.026667 0 976.213333l136.789333-142.805333a274.261333 274.261333 0 0 1 25.6-363.221333L261.973333 368.896l83.328 83.328 84.693334-83.328 41.514666 41.813333-83.370666 83.370667 143.104 142.762667 87.68-89.301334z m-118.869334 261.973334v0.682666l53.461334-53.461333-291.541334-291.84-53.76 54.101333a206.208 206.208 0 0 0-5.674666 291.498667l5.632 5.973333a184.32 184.32 0 0 0 143.104 59.434667 212.821333 212.821333 0 0 0 148.778666-66.389333z m523.178667-326.016c0.512 9.429333 0.768 18.944 0.768 28.501333 0 282.752-229.248 512-512 512-9.557333 0-19.072-0.256-28.501333-0.768l88.746666-88.789333a426.922667 426.922667 0 0 0 362.197334-362.154667l88.746666-88.789333zM540.501333 0.768L451.754667 89.6a426.922667 426.922667 0 0 0-362.197334 362.154667l-88.746666 88.789333A520.192 520.192 0 0 1 0 512C0 229.248 229.248 0 512 0c9.557333 0 19.072 0.256 28.501333 0.768z" fill="#1296db" p-id="5158"></path></svg>