<?xml version="1.0" standalone="no"?><!DOCTYPE svg PUBLIC "-//W3C//DTD SVG 1.1//EN" "http://www.w3.org/Graphics/SVG/1.1/DTD/svg11.dtd"><svg t="1725356293380" class="icon" viewBox="0 0 1024 1024" version="1.1" xmlns="http://www.w3.org/2000/svg" p-id="3732" xmlns:xlink="http://www.w3.org/1999/xlink" width="200" height="200"><path d="M703.466 324.532c42.058 42.056 42.058 110.242 0 152.298l-76.148 76.15L475.02 400.682l76.15-76.15c42.054-42.056 110.242-42.056 152.296 0z" fill="#4988FD" p-id="3733"></path><path d="M634.01 567.126c-16.028 0-31.094-6.242-42.426-17.574L478.448 436.416c-23.394-23.394-23.394-61.458 0-84.852l56.568-56.568c26.442-26.444 61.6-41.006 98.994-41.006 37.396 0 72.552 14.562 98.996 41.004 54.586 54.586 54.586 143.406 0 197.99l-56.57 56.568c-11.332 11.332-26.398 17.574-42.426 17.574z m0-253.136c-21.37 0-41.458 8.322-56.568 23.432l-56.568 56.568L634.01 507.128l0.03-0.002 56.542-56.566c31.192-31.192 31.192-81.944 0-113.136-15.114-15.112-35.204-23.434-56.572-23.434z" fill="#4988FD" p-id="3734"></path><path d="M319.774 708.226c-42.38-42.38-42.38-111.092 0-153.47l76.736-76.736 153.47 153.47-76.736 76.736c-42.378 42.378-111.09 42.378-153.47 0z" fill="#DFECFD" p-id="3735"></path><path d="M389.99 778.01c-37.396 0-72.552-14.562-98.996-41.006-26.442-26.442-41.004-61.6-41.004-98.994s14.562-72.552 41.004-98.994l56.568-56.568c11.332-11.334 26.4-17.574 42.426-17.574 16.026 0 31.094 6.242 42.426 17.574L545.55 595.584c11.332 11.332 17.574 26.398 17.574 42.426s-6.242 31.094-17.574 42.426l-56.568 56.568c-26.44 26.444-61.596 41.006-98.992 41.006z m0-253.136l-56.57 56.568c-15.11 15.11-23.43 35.2-23.43 56.568s8.322 41.458 23.43 56.568c15.11 15.112 35.2 23.432 56.57 23.432 21.368 0 41.458-8.32 56.568-23.432l56.57-56.568L389.99 524.874z" fill="#DFECFD" p-id="3736"></path><path d="M509.786 403.78l42.426 42.426-50 50-42.424-42.426z m72 72l42.426 42.426-50 50-42.424-42.428z" fill="#4988FD" p-id="3737"></path><path d="M299.79 683.78l42.426 42.426-110 110-42.426-42.426z" fill="#DFECFD" p-id="3738"></path><path d="M789.784 195.78l42.426 42.426-110 110-42.426-42.426z" fill="#4988FD" p-id="3739"></path></svg>