<?xml version="1.0" standalone="no"?><!DOCTYPE svg PUBLIC "-//W3C//DTD SVG 1.1//EN" "http://www.w3.org/Graphics/SVG/1.1/DTD/svg11.dtd"><svg t="1707854156581" class="icon" viewBox="0 0 1024 1024" version="1.1" xmlns="http://www.w3.org/2000/svg" p-id="26099" xmlns:xlink="http://www.w3.org/1999/xlink" width="200" height="200"><path d="M284.154638 491.746417a39.397387 39.397387 0 0 0 39.397388-39.397387 175.497451 175.497451 0 0 1 174.985797-174.985797 39.397387 39.397387 0 0 0 0-78.794774 255.827189 255.827189 0 0 0-255.827189 255.827189 38.885733 38.885733 0 0 0 41.444004 37.350769z" fill="#4C87E6" p-id="26100"></path><path d="M483.188191 904.6515a453.325778 453.325778 0 0 0 255.827189-78.794774v4.604889l182.148958 181.637304A38.885733 38.885733 0 0 0 952.375255 1023.86697a39.909041 39.909041 0 0 0 28.140991-11.768051 39.397387 39.397387 0 0 0 0-55.770327L798.878942 776.737906l4.60489-4.60489a452.30247 452.30247 0 1 0-319.783986 132.518484z m-264.013658-716.316129a373.507696 373.507696 0 1 1 0 528.538972 371.972732 371.972732 0 0 1 0-528.538972z" fill="#4C87E6" p-id="26101"></path></svg>