<?xml version="1.0" standalone="no"?><!DOCTYPE svg PUBLIC "-//W3C//DTD SVG 1.1//EN" "http://www.w3.org/Graphics/SVG/1.1/DTD/svg11.dtd"><svg t="1707853502995" class="icon" viewBox="0 0 1092 1024" version="1.1" xmlns="http://www.w3.org/2000/svg" p-id="8634" xmlns:xlink="http://www.w3.org/1999/xlink" width="213.28125" height="200"><path d="M1025.979733 382.3616V928.426667c0 13.653333-2.798933 25.668267-8.3968 35.908266-5.597867 10.24-11.810133 18.8416-18.6368 25.668267a91.682133 91.682133 0 0 1-30.3104 21.026133c-10.24 4.027733-20.6848 6.075733-31.266133 6.075734H145.885867c-24.234667-0.6144-43.895467-9.0112-58.7776-25.1904a84.923733 84.923733 0 0 1-23.3472-56.9344V382.3616l88.6784-273.476267c0-1.8432 7.168-9.8304 21.435733-23.825066 14.336-13.994667 36.727467-21.9136 67.1744-23.825067h607.573333c3.140267-1.2288 16.315733 2.6624 39.662934 11.6736 23.3472 9.0112 39.662933 30.037333 49.015466 63.010133l88.6784 246.442667z m-115.712-68.130133l-55.0912-164.2496H228.010667l-48.5376 164.2496h730.794666z m-182.4768 411.170133c12.151467-12.151467 18.2272-28.603733 18.2272-49.493333 0-20.821333-6.075733-37.341867-18.2272-49.493334-12.151467-12.151467-28.808533-18.500267-49.902933-19.114666H405.367467c-21.162667 0.6144-37.819733 7.031467-49.902934 19.114666-12.0832 12.0832-18.2272 28.603733-18.2272 49.493334 0 20.821333 6.075733 37.341867 18.2272 49.493333 12.151467 12.151467 28.740267 18.2272 49.902934 18.2272H677.888c21.0944-0.068267 37.751467-6.075733 49.902933-18.2272z" fill="#06C1AE" p-id="8635"></path></svg>