<?xml version="1.0" standalone="no"?><!DOCTYPE svg PUBLIC "-//W3C//DTD SVG 1.1//EN" "http://www.w3.org/Graphics/SVG/1.1/DTD/svg11.dtd"><svg t="1707853439252" class="icon" viewBox="0 0 1227 1024" version="1.1" xmlns="http://www.w3.org/2000/svg" p-id="7609" xmlns:xlink="http://www.w3.org/1999/xlink" width="239.6484375" height="200"><path d="M619.131754 1.091943c-6.430332 1.698578-14.316588 7.036967-17.592418 11.890048-2.305213 3.275829-7.036967 18.805687-16.743127 54.354502-7.522275 27.298578-13.952607 50.472038-14.437915 51.321327-0.606635 1.091943-6.430332-6.794313-16.379147-21.96019-16.015166-24.629384-22.688152-32.272986-30.331754-34.820853-5.945024-1.941232-19.533649-1.091943-24.993365 1.577251-2.305213 1.091943-12.132701 8.614218-21.838862 16.621801l-17.592417 14.559242h-32.272986c-36.398104 0-41.615166 0.849289-48.045498 7.522275-9.706161 9.948815-9.948815 23.17346-0.606635 32.879621 7.643602 8.007583 8.12891 8.12891 52.655925 8.12891 30.331754-0.121327 41.493839-0.485308 44.890995-1.698578 2.42654-0.849289 9.706161-5.945024 16.136493-11.162086 6.430332-5.338389 12.618009-10.312796 13.831279-11.162085 2.062559-1.334597 4.246445 1.455924 24.38673 31.30237 12.132701 18.077725 23.780095 34.092891 25.963981 35.791469 6.187678 4.731754 12.254028 6.672986 20.74692 6.672986 14.680569 0 25.114692-7.886256 29.482464-22.081517 1.334597-4.246445 6.309005-22.566825 11.283412-40.765877 4.974408-18.077725 9.220853-33.000948 9.584835-33.000948 0.363981 0 5.459716 16.500474 11.404739 36.762086 5.823697 20.140284 11.162085 37.854028 11.647393 39.188625 1.698578 4.367773 8.614218 11.404739 13.83128 14.195261 7.036967 3.761137 22.324171 3.761137 29.23981 0 7.522275-4.003791 10.191469-7.643602 25.478673-35.548815 7.886256-14.316588 15.04455-27.055924 15.772512-28.269195 1.334597-1.941232 2.305213-1.334597 10.798104 6.309005 13.709953 12.496682 13.467299 12.375355 58.600948 12.011375l37.611375-0.363981 4.85308-3.397157c6.551659-4.4891 10.070142-11.162085 10.070142-18.927014 0-9.948815-4.125118-16.621801-13.345971-21.474882-3.761137-2.062559-7.764929-2.305213-34.456872-2.669194l-30.331754-0.485308-13.345971-12.739336c-8.371564-8.007583-15.651185-13.952607-19.53365-15.651185-12.132701-5.70237-28.02654-2.669194-36.398104 6.91564-2.062559 2.305213-8.250237 12.496682-13.83128 22.688151-5.581043 10.312796-10.55545 18.199052-11.040758 17.592417-0.485308-0.485308-6.672986-21.232227-13.831279-45.861611-14.316588-49.380095-15.408531-52.777251-20.504266-57.872986-7.279621-7.279621-20.746919-10.919431-30.817061-8.371564z" p-id="7610" fill="#06C1AE"></path><path d="M1040.500474 25.478673c-8.12891 2.062559-18.805687 8.614218-24.993365 15.408531-7.886256 8.614218-11.283412 17.47109-11.283412 30.089099-0.121327 8.492891 0.363981 10.798104 3.882464 18.320379l4.003792 8.735545-59.207583 117.808531C920.265403 280.629384 892.966825 333.649289 892.36019 333.649289c-0.727962 0-6.794313-2.183886-13.345972-4.974407-19.776303-8.12891-60.299526-21.1109-84.322275-27.177252-37.854028-9.463507-79.347867-15.893839-119.143128-18.805687-23.17346-1.577251-97.182938-1.577251-121.812322 0.121327-71.825592 4.731754-140.860664 20.261611-206.134597 46.225593-9.948815 4.003791-18.320379 6.794313-18.441706 6.187677-0.242654-0.485308-27.298578-53.505213-60.178199-117.687204L209.046445 100.701422l3.761138-7.522275c3.397156-6.794313 3.761137-8.614218 3.761137-19.169668 0-9.948815-0.485308-12.496682-3.275829-18.563034-1.819905-3.761137-6.187678-9.827488-9.706161-13.345971-20.140284-20.140284-52.291943-19.412322-71.704266 1.577251-8.856872 9.463507-12.132701 17.835071-12.132701 30.938389-0.121327 8.492891 0.363981 10.798104 3.63981 17.956398 6.794313 14.316588 19.89763 24.508057 35.427489 27.662559l6.794312 1.334597 61.148816 118.900474c33.486256 65.395261 60.54218 119.264455 60.056872 119.749763-0.606635 0.485308-7.400948 5.095735-15.04455 10.191469-88.690047 58.843602-142.680569 147.776303-156.997157 258.669195-1.577251 12.132701-4.246445 45.254976-4.367772 53.019905 0 2.062559-2.42654 2.183886-32.758294 2.183886-19.169668 0-35.306161 0.606635-39.067298 1.334597-15.04455 3.154502-29.725118 15.04455-35.184835 28.754503l-2.790521 6.91564v138.312796l3.275829 7.036967c6.309005 13.345972 19.654976 24.144076 33.850237 27.419905 2.911848 0.727962 20.504265 1.334597 38.945972 1.334597h33.607583l0.363981 36.640758c0.363981 35.306161 0.485308 37.004739 3.275829 44.041706 8.492891 21.596209 25.478673 37.247393 48.652133 45.012323 6.187678 2.062559 13.345972 2.305213 101.308057 2.669194 52.049289 0.242654 136.250237 0 186.964929-0.363981l92.451185-0.849289-9.584834-16.015166-9.584835-15.893839 44.890996-0.363981c24.750711-0.121327 65.03128-0.121327 89.660663 0l44.769668 0.363981-9.463507 16.136493-9.584834 16.015166 186.479621-0.242654 186.479621-0.363981 9.706161-3.27583c22.930806-7.886256 39.916588-25.114692 47.438863-48.288151 1.698578-5.581043 2.183886-12.375355 2.669194-41.493839l0.485308-34.820853 36.640758-0.363981 36.640759-0.363981 9.220853-4.610427c11.283412-5.459716 20.140284-14.680569 24.265402-24.872038l2.790522-6.91564v-140.739336l-3.882465-8.007583c-4.731754-9.706161-13.467299-18.199052-23.173459-22.688152l-6.91564-3.275829-38.460664-0.363981-38.460663-0.363981-0.606635-7.522275c-0.242654-4.125118-1.21327-15.165877-1.819905-24.508057-4.367773-56.538389-20.382938-112.470142-45.13365-157.482464-27.177251-49.258768-67.943128-92.815166-116.959241-125.209479-8.007583-5.217062-14.801896-9.827488-15.165877-10.070142-0.363981-0.242654 26.449289-54.111848 59.450237-119.749763l60.056872-119.264455 5.459715-0.849289c8.007583-1.21327 19.654976-7.158294 25.963981-13.224645 6.551659-6.430332 10.798104-14.559242 12.860664-24.38673 1.819905-8.614218 1.091943-15.772512-2.547867-25.478673-3.761137-10.191469-15.772512-22.202844-25.963981-25.963981-8.250237-3.154502-23.901422-4.367773-31.423697-2.547867zM829.512796 573.270142c48.894787 9.220853 88.811374 46.7109 97.910901 91.84455 3.033175 14.437915 2.547867 34.578199-0.970616 48.530806-11.162085 43.920379-44.28436 76.314692-91.480569 89.296682l-11.768721 3.275829h-429.49763l-11.76872-3.275829c-57.145024-15.772512-94.149763-63.575355-91.601896-118.65782 2.42654-53.869194 44.163033-99.609479 101.065403-110.892891 6.91564-1.455924 46.104265-1.698578 218.388625-1.819905 182.718483-0.121327 211.351659 0.121327 219.723223 1.698578zM111.620853 791.658768V856.56872H43.677725V726.748815h67.943128v64.909953z m1073.744076 0V856.56872h-67.943128V726.748815h67.943128v64.909953z" p-id="7611" fill="#06C1AE"></path><path d="M430.7109 624.95545c-15.287204 1.698578-28.633175 8.007583-40.280568 19.048341-14.195261 13.467299-20.625592 28.390521-20.625593 47.56019 0 19.533649 6.551659 34.456872 21.596209 48.409479 13.467299 12.618009 30.0891 18.927014 49.622749 18.68436C479.241706 758.293839 509.57346 728.56872 509.57346 691.563981c0-40.765877-36.034123-71.218957-78.86256-66.608531zM780.132701 624.834123c-36.883412 4.853081-63.818009 35.670142-61.512796 70.369668 2.42654 36.15545 32.51564 63.454028 70.005687 63.454029 29.967773 0 55.567773-17.349763 66.365877-44.769668 2.911848-7.400948 3.275829-10.070142 3.27583-22.324171 0-16.25782-2.062559-23.052133-11.040759-36.762085-13.952607-20.989573-41.372512-33.364929-67.093839-29.967773z" p-id="7612" fill="#06C1AE"></path></svg>